# AST/ASF file generated using VICON BodyLanguage
# -----------------------------------------------
:version 1.10
:name VICON
:units
  mass 1.0
  length 0.45
  angle deg
:documentation
   .ast/.asf automatically generated from VICON data using
   VICON BodyBuilder and BodyLanguage model FoxedUp or BRILLIANT.MOD
:root
   order TX TY TZ RX RY RZ
   axis XYZ
   position 0 0 0  
   orientation 0 0 0 
:bonedata
  begin
     id 1 
     name lhipjoint
     direction 0.589753 -0.68606 0.426044 
     length 2.54082 
     axis 0 0 0  XYZ
  end
  begin
     id 2 
     name lfemur
     direction 0.34202 -0.939693 0  
     length 7.04539  
     axis 0 0 20  XYZ
    dof rx ry rz
    limits (-160.0 20.0)
           (-70.0 70.0)
           (-60.0 70.0)
  end
  begin
     id 3 
     name ltibia
     direction 0.34202 -0.939693 0   
     length 7.83772   
     axis 0 0 20   XYZ
    dof rx
    limits (-10.0 170.0)
  end
  begin
     id 4 
     name lfoot
     direction 0.0596604 -0.163915 0.984669   
     length 2.39542   
     axis -90 7.62852e-016 20   XYZ
    dof rx rz
    limits (-45.0 90.0)
           (-70.0 20.0)
  end
  begin
     id 5 
     name ltoes
     direction 1.53514e-011 -4.21954e-011 1   
     length 1.2047   
     axis -90 7.62852e-016 20   XYZ
    dof rx
    limits (-90.0 20.0)
  end
  begin
     id 6 
     name rhipjoint
     direction -0.580585 -0.69168 0.429534   
     length 2.52018  
     axis 0 0 0  XYZ 
  end
  begin
     id 7 
     name rfemur
     direction -0.34202 -0.939693 0   
     length 7.0101   
     axis 0 0 -20   XYZ
    dof rx ry rz
    limits (-160.0 20.0)
           (-70.0 70.0)
           (-70.0 60.0)
  end
  begin
     id 8 
     name rtibia
     direction -0.34202 -0.939693 0   
     length 7.70628   
     axis 0 0 -20   XYZ
    dof rx
    limits (-10.0 170.0)
 end
 begin
     id 9 
     name rfoot
     direction -0.0696237 -0.19129 0.979061   
     length 2.52466  
     axis -90 -7.62852e-016 -20   XYZ
    dof rx rz
    limits (-45.0 90.0)
           (-20.0 70.0)
  end
  begin
     id 10 
     name rtoes
     direction -1.53519e-011 -4.21793e-011 1   
     length 1.266   
     axis -90 -7.62852e-016 -20   XYZ
    dof rx
    limits (-90.0 20.0)
  end
  begin
     id 11 
     name lowerback
     direction 0.00381965 0.995707 -0.0924856   
     length 2.20825   
     axis 0 0 0   XYZ
    dof rx ry rz
    limits (-20.0 45.0)
           (-30.0 30.0)
           (-30.0 30.0)
  end
  begin
     id 12 
     name upperback
     direction -0.0139043 0.999634 -0.0231929   
     length 2.21517   
     axis 0 0 0   XYZ
    dof rx ry rz
    limits (-20.0 45.0)
           (-30.0 30.0)
           (-30.0 30.0)
  end
  begin
     id 13 
     name thorax
     direction -0.0143933 0.999691 0.0202892   
     length 2.22911   
     axis 0 0 0   XYZ
    dof rx ry rz
    limits (-20.0 45.0)
           (-30.0 30.0)
           (-30.0 30.0)
  end
  begin
     id 14 
     name lowerneck
     direction -0.0251153 0.981819 0.188153   
     length 1.61782   
     axis 0 0 0   XYZ
    dof rx ry rz
    limits (-20.0 45.0)
           (-30.0 30.0)
           (-30.0 30.0)
  end
  begin
     id 15 
     name upperneck
     direction 0.0563891 0.969357 -0.239095   
     length 1.64526   
     axis 0 0 0   XYZ
    dof rx ry rz
    limits (-20.0 45.0)
           (-30.0 30.0)
           (-30.0 30.0)
  end
  begin
     id 16
     name head
     direction 0.0208328 0.99459 -0.101773  
     length 1.67436  
     axis 0 0 0   XYZ
    dof rx ry rz
    limits (-20.0 45.0)
           (-30.0 30.0)
           (-30.0 30.0)
  end
  begin
     id 17 
     name lclavicle
     direction 0.917689 0.397224 0.00772059  
     length 3.31102  
     axis 0 0 0   XYZ
    dof ry rz
    limits (-20.0 10.0)
           (0.0 20.0)
  end
  begin
     id 18 
     name lhumerus
     direction 1 -4.4896e-011 2.32308e-027   
     length 5.25537   
     axis 180 -30 -90   XYZ
    dof rx ry rz
    limits (-60.0 90.0)
           (-90.0 90.0)
           (-90.0 90.0)
  end
  begin
     id 19
     name lradius
     direction 1 -4.49005e-011 -2.04271e-027   
     length 3.38855   
     axis 180 -30 -90   XYZ
    dof rx
    limits (-10.0 170.0)
  end
  begin
     id 20
     name lwrist
     direction 1 -4.48892e-011 2.56952e-028   
     length 1.69428   
     axis -5.12785e-016 90 90   XYZ
    dof ry
    limits (-180.0 0.0)
 end
  begin
     id 21 
     name lhand
     direction 1 -4.48966e-011 5.13905e-028   
     length 0.614516   
     axis -3.27915e-016 90 90   XYZ
    dof rx rz
    limits (-90.0 90.0)
           (-45.0 45.0)
  end
  begin
     id 22 
     name lfingers
     direction 1 -4.48979e-011 1.02781e-027   
     length 0.495439   
     axis -6.5583e-016 90 90   XYZ
    dof rx
    limits (0.0 90.0)
  end
  begin
     id 23
     name lthumb
     direction 0.707107 -6.35001e-011 0.707107   
     length 0.711354   
     axis -90 45 2.85299e-015   XYZ
    dof rx rz
    limits (-45.0 45.0)
           (-45.0 45.0)
  end
  begin
     id 24 
     name rclavicle
     direction -0.938556 0.342765 -0.0403177   
     length 3.27019  
     axis 0 0 0   XYZ 
    dof ry rz
    limits (-10.0 20.0)
           (-20.0 0.0)
  end
  begin
     id 25 
     name rhumerus
     direction -1 -4.48966e-011 2.52291e-027  
     length 5.38183   
     axis 180 30 90   XYZ
    dof rx ry rz
    limits (-90.0 60.0)
           (-90.0 90.0)
           (-90.0 90.0)
  end
  begin
     id 26 
     name rradius
     direction -1 -4.4896e-011 1.5797e-027   
     length 3.16988   
     axis 180 30 90   XYZ
    dof rx
    limits (-10.0 170.0)
  end
  begin
     id 27 
     name rwrist
     direction -1 -4.48947e-011 2.56952e-028   
     length 1.58494   
     axis -5.12785e-016 -90 -90   XYZ
    dof ry
    limits (-180.0 0.0)
  end
  begin
     id 28
     name rhand
     direction -1 -4.49098e-011 5.13905e-028   
     length 0.637679   
     axis -3.27915e-016 -90 -90   XYZ
    dof rx rz
    limits (-90.0 90.0)
           (-45.0 45.0)
  end
  begin
     id 29
     name rfingers
     direction -1 -4.49026e-011 1.02781e-027   
     length 0.514113   
     axis -6.5583e-016 -90 -90   XYZ
    dof rx
    limits (0.0 90.0)
  end
  begin
     id 30
     name rthumb
     direction -0.707107 -6.3491e-011 0.707107   
     length 0.738167   
     axis -90 -45 -2.85299e-015   XYZ
    dof rx rz
    limits (-45.0 45.0)
           (-45.0 45.0)
  end
:hierarchy
  begin
    root lhipjoint rhipjoint lowerback
    lhipjoint lfemur
    lfemur ltibia
    ltibia lfoot
    lfoot ltoes
    rhipjoint rfemur
    rfemur rtibia
    rtibia rfoot
    rfoot rtoes
    lowerback upperback
    upperback thorax
    thorax lowerneck lclavicle rclavicle
    lowerneck upperneck
    upperneck head
    lclavicle lhumerus
    lhumerus lradius
    lradius lwrist
    lwrist lhand lthumb
    lhand lfingers
    rclavicle rhumerus
    rhumerus rradius
    rradius rwrist
    rwrist rhand rthumb
    rhand rfingers
  end

#!OML:ASF H:\Swim\Project 1\Capture day 1\Session 1\swimmer.ASF
:FULLY-SPECIFIED
:DEGREES
1842
root 4.39035 12.4321 25.003 92.4919 -4.72942 -0.859622
lowerback -5.58182 -1.15506 -3.45082
upperback -9.32506 -1.60761 -0.777818
thorax -6.54567 -0.626819 1.11835
lowerneck -25.5819 -4.7098 -8.66196
upperneck 27.6837 -5.52076 7.30259
head 14.2368 -2.24352 3.34696
rclavicle 3.18055e-015 1.5704e-014
rhumerus -17.8662 60.4195 -5.66294
rradius 32.4919
rwrist -19.4688
rhand 20.6064 5.0342
rfingers 7.12502
rthumb 45.0995 -18.426
lclavicle 3.18055e-015 1.5704e-014
lhumerus -25.9492 -55.019 9.54758
lradius 18.4979
lwrist -4.12287
lhand 37.6532 6.79817
lfingers 7.12502
lthumb 60.423 -339.873
rfemur 0.152195 -6.52586 19.0113
rtibia 67.501
rfoot 20.858 -8.28668
rtoes 4.22328
lfemur 1.15178 6.76959 -18.9151
ltibia 60.3039
lfoot 26.5308 0.544623
ltoes -3.86657
1843
root 4.38657 12.4404 25.012 92.5259 -4.70145 -0.712733
lowerback -5.43842 -1.35409 -3.57359
upperback -8.98811 -1.86232 -0.495872
thorax -6.23768 -0.747365 1.48078
lowerneck -26.8237 -4.81264 -9.26446
upperneck 28.4097 -5.38287 7.43746
head 14.8302 -2.2132 3.55446
rclavicle 9.54166e-015 -6.16232e-015
rhumerus -13.5746 59.9215 -0.110193
rradius 31.9982
rwrist -19.2778
rhand 21.5115 4.82676
rfingers 7.12502
rthumb 45.9405 -18.2925
lclavicle 9.54166e-015 -6.16232e-015
lhumerus -23.9589 -53.9017 6.13348
lradius 18.485
lwrist -3.9868
lhand 37.6881 6.87136
lfingers 7.12502
lthumb 60.4527 -339.832
rfemur 0.308322 -6.5668 18.9379
rtibia 68.2901
rfoot 21.3249 -8.57956
rtoes 4.44616
lfemur 1.31891 6.51761 -18.8227
ltibia 60.9517
lfoot 27.1473 0.665252
ltoes -3.48923
1844
root 4.38291 12.4457 25.0212 92.647 -4.65946 -0.570385
lowerback -5.33732 -1.47953 -3.64228
upperback -8.73188 -2.022 -0.317381
thorax -6.00145 -0.825329 1.70387
lowerneck -27.8686 -4.9666 -9.8737
upperneck 29.2586 -5.40423 7.8061
head 15.4808 -2.2265 3.84338
rclavicle -6.36111e-015 -4.77083e-015
rhumerus -10.0247 59.2336 4.76524
rradius 31.5176
rwrist -19.0225
rhand 22.406 4.67457
rfingers 7.12502
rthumb 46.7695 -18.0925
lclavicle -6.36111e-015 -4.77083e-015
lhumerus -21.6361 -52.8448 2.48831
lradius 18.5068
lwrist -3.62974
lhand 37.2906 6.94225
lfingers 7.12502
lthumb 60.1138 -339.397
rfemur 0.367334 -6.56111 18.9204
rtibia 68.9438
rfoot 21.884 -8.83828
rtoes 4.69576
lfemur 1.37538 6.21624 -18.7609
ltibia 61.4916
lfoot 27.7557 0.7071
ltoes -3.18018
1845
root 4.37937 12.4477 25.0305 92.8494 -4.60487 -0.436967
lowerback -5.27808 -1.53228 -3.65807
upperback -8.58096 -2.08885 -0.249717
thorax -5.86542 -0.860256 1.78217
lowerneck -28.5394 -5.13072 -10.4058
upperneck 30.1191 -5.55718 8.31365
head 16.0962 -2.27594 4.16369
rclavicle -6.36111e-015 -1.27222e-014
rhumerus -7.18391 58.4589 8.9595
rradius 31.0564
rwrist -18.7598
rhand 23.3 4.45384
rfingers 7.12502
rthumb 47.596 -17.9453
lclavicle -6.36111e-015 -1.27222e-014
lhumerus -18.9571 -51.8241 -1.41468
lradius 18.5664
lwrist -3.07965
lhand 36.6305 7.01881
lfingers 7.12502
lthumb 59.5482 -338.735
rfemur 0.337692 -6.50491 18.9577
rtibia 69.4478
rfoot 22.5402 -9.03895
rtoes 4.97303
lfemur 1.33185 5.86699 -18.7304
ltibia 61.9124
lfoot 28.3635 0.668645
ltoes -2.88952
1846
root 4.37597 12.4464 25.0396 93.1266 -4.53234 -0.317707
lowerback -5.2606 -1.52085 -3.6232
upperback -8.53966 -2.07386 -0.276996
thorax -5.83336 -0.856464 1.73418
lowerneck -28.7267 -5.2617 -10.7792
upperneck 30.8539 -5.78232 8.8175
head 16.5671 -2.34627 4.44292
rclavicle 1.90833e-014 -6.16232e-015
rhumerus -4.89143 57.6441 12.5956
rradius 30.6107
rwrist -18.5171
rhand 24.2166 4.16427
rfingers 7.12502
rthumb 48.4409 -17.8402
lclavicle 1.90833e-014 -6.16232e-015
lhumerus -15.9757 -50.7907 -5.51688
lradius 18.6753
lwrist -2.35882
lhand 35.8537 7.11337
lfingers 7.12502
lthumb 58.8784 -337.98
rfemur 0.22731 -6.39673 19.0523
rtibia 69.7894
rfoot 23.2884 -9.16028
rtoes 5.25468
lfemur 1.1989 5.4734 -18.7234
ltibia 62.2019
lfoot 28.9809 0.540158
ltoes -2.59501
1847
root 4.37287 12.4422 25.0483 93.479 -4.4399 -0.213763
lowerback -5.29588 -1.46573 -3.54085
upperback -8.58087 -2.00238 -0.366847
thorax -5.86676 -0.826729 1.59459
lowerneck -28.4637 -5.34303 -10.9806
upperneck 31.3541 -6.01569 9.21088
head 16.8206 -2.42128 4.63251
rclavicle 1.98785e-014 4.77083e-015
rhumerus -2.91081 56.8042 15.8753
rradius 30.1848
rwrist -18.3582
rhand 25.1791 3.79318
rfingers 7.12502
rthumb 49.3255 -17.7766
lclavicle 1.98785e-014 4.77083e-015
lhumerus -12.806 -49.5256 -9.69217
lradius 18.8137
lwrist -1.57761
lhand 35.1739 7.17854
lfingers 7.12502
lthumb 58.2885 -337.362
rfemur 0.0351329 -6.23698 19.2041
rtibia 69.9601
rfoot 24.1027 -9.1961
rtoes 5.51891
lfemur 0.976813 5.03735 -18.7353
ltibia 62.3498
lfoot 29.6181 0.338947
ltoes -2.26554
1848
root 4.37023 12.4353 25.0564 93.8959 -4.33474 -0.124768
lowerback -5.38621 -1.40838 -3.43937
upperback -8.62585 -1.92541 -0.447826
thorax -5.87308 -0.795667 1.45215
lowerneck -28.0664 -5.38747 -11.0949
upperneck 31.6586 -6.18528 9.4587
head 16.9279 -2.48086 4.74506
rclavicle 3.18055e-015 -3.57812e-015
rhumerus -0.9157 55.8372 19.098
rradius 29.7727
rwrist -18.3544
rhand 26.1109 3.27107
rfingers 7.12502
rthumb 50.1791 -17.8571
lclavicle 3.18055e-015 -3.57812e-015
lhumerus -9.78937 -47.8937 -13.6128
lradius 18.977
lwrist -0.76798
lhand 34.635 7.31033
lfingers 7.12502
lthumb 57.8187 -336.807
rfemur -0.2258 -6.02619 19.3995
rtibia 69.9512
rfoot 24.9547 -9.14745
rtoes 5.77608
lfemur 0.680234 4.56047 -18.7687
ltibia 62.345
lfoot 30.2784 0.0985607
ltoes -1.85939
